<?xml version="1.0" standalone="no"?><svg xmlns="http://www.w3.org/2000/svg" viewBox="0 0 1440 320"><path fill="#0099ff" fill-opacity="1" d="M0,192L26.7,181.3C53.3,171,107,149,160,133.3C213.3,117,267,107,320,112C373.3,117,427,139,480,149.3C533.3,160,587,160,640,160C693.3,160,747,160,800,165.3C853.3,171,907,181,960,186.7C1013.3,192,1067,192,1120,160C1173.3,128,1227,64,1280,42.7C1333.3,21,1387,43,1413,53.3L1440,64L1440,320L1413.3,320C1386.7,320,1333,320,1280,320C1226.7,320,1173,320,1120,320C1066.7,320,1013,320,960,320C906.7,320,853,320,800,320C746.7,320,693,320,640,320C586.7,320,533,320,480,320C426.7,320,373,320,320,320C266.7,320,213,320,160,320C106.7,320,53,320,27,320L0,320Z"></path></svg>