<?xml version="1.0" standalone="no"?><svg xmlns="http://www.w3.org/2000/svg" viewBox="0 0 1440 320"><path fill="#0099ff" fill-opacity="1" d="M0,64L26.7,96C53.3,128,107,192,160,197.3C213.3,203,267,149,320,112C373.3,75,427,53,480,64C533.3,75,587,117,640,128C693.3,139,747,117,800,106.7C853.3,96,907,96,960,106.7C1013.3,117,1067,139,1120,154.7C1173.3,171,1227,181,1280,181.3C1333.3,181,1387,171,1413,165.3L1440,160L1440,320L1413.3,320C1386.7,320,1333,320,1280,320C1226.7,320,1173,320,1120,320C1066.7,320,1013,320,960,320C906.7,320,853,320,800,320C746.7,320,693,320,640,320C586.7,320,533,320,480,320C426.7,320,373,320,320,320C266.7,320,213,320,160,320C106.7,320,53,320,27,320L0,320Z"></path></svg>